<svg width="227" height="227" viewBox="0 0 227 227" fill="none" xmlns="http://www.w3.org/2000/svg">
<mask id="mask0_16_518" style="mask-type:luminance" maskUnits="userSpaceOnUse" x="0" y="0" width="227" height="227">
<path d="M0 113.35C0 50.75 48.1 0 110.7 0C173.3 0 226.7 50.75 226.7 113.35C226.7 175.95 175.95 226.7 113.35 226.7C50.75 226.7 0 175.95 0 113.35Z" fill="white"/>
</mask>
<g mask="url(#mask0_16_518)">
<path d="M0 113.35C0 50.75 48.1 0 110.7 0C173.3 0 226.7 50.75 226.7 113.35C226.7 175.95 175.95 226.7 113.35 226.7C50.75 226.7 0 175.95 0 113.35Z" fill="#1A0084"/>
</g>
<mask id="mask1_16_518" style="mask-type:luminance" maskUnits="userSpaceOnUse" x="0" y="0" width="227" height="227">
<path d="M0 113.35C0 50.75 48.1 0 110.7 0C173.3 0 226.7 50.75 226.7 113.35C226.7 175.95 175.95 226.7 113.35 226.7C50.75 226.7 0 175.95 0 113.35Z" fill="white"/>
</mask>
<g mask="url(#mask1_16_518)">
<path d="M208.66 50.14C180.16 44.66 148.99 47.89 122.19 58.91C114.55 62.37 102.94 68.05 101.32 76.8C99.63 86.51 110.72 93.14 116.32 99.91C123.34 107.04 125.03 118.01 123.51 127.41C122.6 133.58 120.7 139.5 118.36 145.22C114.85 153.66 110.56 161.58 105.97 169.41C104.7 171.54 102.68 174.83 101.6 177.05C93.8 192.45 89.57 220.73 99.39 235.78C102.27 240.25 108.56 242.68 112.82 238.83C114.82 237.09 116.26 234.59 117.36 231.97C119.56 226.63 120.48 220.77 120.84 215C121.77 197.51 118.02 179.7 110.42 163.95C105.12 153.45 97.91 143.65 92.54 133.03C84.04 116.9 78.77 99.09 77.09 80.93C76.14 68.7 77.96 56.48 81.06 44.72C85.88 27.27 93.25 10.63 102.77 -4.77002L104.96 -3.42001C93.8 17.2 84.99 39.71 82.35 63.12C80.46 80.62 84.34 98.15 90.1 114.58C95.07 128.52 102.73 141.19 110.31 153.88C122.45 174.89 127.24 200.42 122.68 224.28C121.29 230.33 119.45 236.58 114.59 240.93C109.14 245.75 100.85 243.05 97.17 237.38C86.61 221.41 90.04 191.96 97.91 175.29C98.99 172.95 100.89 169.58 102.17 167.27C106.38 159.53 110.35 151.52 113.34 143.29C116.87 133.35 119.55 122.72 116.6 112.41C114.92 106.46 109.95 102.15 105.62 97.69C99.88 92.12 93.7 84.58 95.6 75.77C97.87 64.34 110.55 58.09 120.06 53.92C148.16 43.12 179.97 40.4 209.3 47.36C209.31 47.34 208.66 50.14 208.66 50.14Z" fill="white"/>
</g>
<mask id="mask2_16_518" style="mask-type:luminance" maskUnits="userSpaceOnUse" x="0" y="0" width="227" height="227">
<path d="M0 113.35C0 50.75 48.1 0 110.7 0C173.3 0 226.7 50.75 226.7 113.35C226.7 175.95 175.95 226.7 113.35 226.7C50.75 226.7 0 175.95 0 113.35Z" fill="white"/>
</mask>
<g mask="url(#mask2_16_518)">
<path d="M111.11 46.18C118.074 46.18 123.72 40.5343 123.72 33.57C123.72 26.6057 118.074 20.96 111.11 20.96C104.146 20.96 98.5 26.6057 98.5 33.57C98.5 40.5343 104.146 46.18 111.11 46.18Z" fill="white"/>
</g>
</svg>
